<svg width="60" height="61" viewBox="0 0 60 61" fill="none" xmlns="http://www.w3.org/2000/svg">
<path fill-rule="evenodd" clip-rule="evenodd" d="M21.2037 0.416788C20.0727 1.02641 19.1974 1.73026 18.4624 2.62125C15.8729 5.76054 15.8177 10.2269 18.3273 13.5383C18.8773 14.2642 20.1176 15.3309 20.9231 15.7707L21.3009 15.9771V19.6164V23.2558H13.7529C8.92573 23.2558 5.94571 23.3025 5.48617 23.3853C2.88272 23.8543 0.54721 26.2166 0.105592 28.8275C0.0142641 29.368 -0.0163803 32.7285 0.00808678 39.547L0.0435762 49.4792L0.316953 50.028C0.746944 50.891 1.2358 51.4009 2.06332 51.8497L2.82943 52.265H30.0218H57.2141L57.9774 51.8512C58.8251 51.3915 59.1902 51.0143 59.6736 50.0978L60 49.4792V39.1231C60 29.3205 59.9879 28.7314 59.7733 28.1008C59.3946 26.9885 58.8553 26.0856 58.1177 25.3296C57.3325 24.5246 56.6539 24.0886 55.4724 23.6296L54.6705 23.3181L48.6446 23.2808L42.6187 23.2433V18.043V12.8427L43.1183 11.8353L43.618 10.8278L43.1088 5.75146C42.8287 2.95955 42.5482 0.578973 42.4852 0.461483C42.2688 0.0569284 41.9268 0 39.7117 0C37.4966 0 37.1547 0.0569284 36.9382 0.461483C36.8752 0.578973 36.5947 2.95955 36.3147 5.75146L35.8055 10.8278L36.3051 11.8353L36.8047 12.8427V18.0493V23.2558H32.9288H29.0528V19.6389V16.0221L29.8687 15.4944C32.4941 13.7966 34.0335 10.8058 33.8543 7.75194C33.7735 6.37633 33.5362 5.44707 32.9684 4.28162C32.1736 2.65056 30.7312 1.21233 29.026 0.350291C28.179 -0.0778828 27.7998 -0.0903586 27.4122 0.29736L27.1148 0.594598V4.10901V7.62343L26.2118 8.2328C25.7152 8.56783 25.2495 8.84206 25.1768 8.84206C25.1042 8.84206 24.6384 8.56783 24.1418 8.2328L23.2388 7.62343V4.10901V0.594598L22.9415 0.29736C22.5387 -0.105499 22.1195 -0.0766715 21.2037 0.416788ZM40.8057 2.21051C40.8079 2.36047 40.9924 4.28174 41.2158 6.48014L41.6221 10.4772L41.331 11.0526L41.04 11.6279H39.7117H38.3835L38.087 11.0428L37.7904 10.4577L38.2054 6.3492C38.4337 4.08963 38.6208 2.17272 38.621 2.08939C38.6215 1.97953 38.9207 1.93799 39.7117 1.93799C40.7603 1.93799 40.802 1.9484 40.8057 2.21051ZM21.4622 8.69514C21.5177 8.78089 22.2929 9.33964 23.1851 9.93666C24.3436 10.7121 24.9127 11.0223 25.1768 11.0223C25.441 11.0223 26.0111 10.7114 27.1737 9.93327C28.0687 9.33431 28.8575 8.73838 28.9268 8.60889C29.0039 8.465 29.0528 7.26369 29.0528 5.51914C29.0528 3.94925 29.1006 2.66473 29.1593 2.66473C29.3666 2.66473 30.8141 4.31626 31.1449 4.93036C31.5847 5.74697 31.9603 7.2408 31.958 8.16498C31.952 10.6337 30.4685 13.0432 28.2362 14.2098C27.7537 14.4619 27.3041 14.7708 27.2369 14.8963C27.1618 15.0368 27.1148 16.689 27.1148 19.1902V23.2558H25.1768H23.2388V19.1902C23.2388 16.689 23.1918 15.0368 23.1167 14.8963C23.0495 14.7708 22.5999 14.4619 22.1175 14.2098C19.7118 12.9526 18.2662 10.4195 18.4322 7.75194C18.5432 5.96415 19.2415 4.47953 20.5472 3.25436L21.2403 2.60417L21.3009 5.57171C21.3342 7.20385 21.4067 8.60938 21.4622 8.69514ZM40.6807 18.4109V23.2558H39.7117H38.7427V18.4109V13.5659H39.7117H40.6807V18.4109ZM55.3562 25.7068C56.4586 26.2516 57.1452 26.953 57.6787 28.079L58.062 28.8881L58.0986 33.8239L58.1352 38.7597H30.0218H1.9084L1.94498 33.8239L1.98156 28.8881L2.36492 28.079C2.57568 27.6341 2.97078 27.0285 3.24271 26.7334C3.77783 26.153 4.87691 25.5057 5.62958 25.3278C5.90804 25.262 15.9543 25.2243 30.2703 25.2355L54.4409 25.2544L55.3562 25.7068ZM44.5567 31.1661C43.9622 31.3535 42.9483 32.4034 42.766 33.0204C42.4305 34.156 42.667 35.0614 43.523 35.9174C44.1503 36.5447 44.7638 36.8217 45.5257 36.8217C46.2875 36.8217 46.901 36.5447 47.5283 35.9174C48.712 34.7338 48.7473 33.2281 47.621 31.9753C46.8371 31.1035 45.7046 30.8043 44.5567 31.1661ZM52.3086 31.1661C51.7141 31.3535 50.7002 32.4034 50.5179 33.0204C50.1824 34.156 50.419 35.0614 51.2749 35.9174C51.9022 36.5447 52.5157 36.8217 53.2776 36.8217C54.0395 36.8217 54.653 36.5447 55.2803 35.9174C56.4639 34.7338 56.4993 33.2281 55.3729 31.9753C54.589 31.1035 53.4565 30.8043 52.3086 31.1661ZM46.1973 33.2431C46.3848 33.4305 46.4947 33.6788 46.4947 33.9147C46.4947 34.1507 46.3848 34.399 46.1973 34.5864C46.0099 34.7739 45.7616 34.8837 45.5257 34.8837C45.2897 34.8837 45.0414 34.7739 44.854 34.5864C44.6665 34.399 44.5567 34.1507 44.5567 33.9147C44.5567 33.6788 44.6665 33.4305 44.854 33.2431C45.0414 33.0556 45.2897 32.9458 45.5257 32.9458C45.7616 32.9458 46.0099 33.0556 46.1973 33.2431ZM53.9492 33.2431C54.1367 33.4305 54.2466 33.6788 54.2466 33.9147C54.2466 34.1507 54.1367 34.399 53.9492 34.5864C53.7619 34.7739 53.5136 34.8837 53.2776 34.8837C53.0417 34.8837 52.7934 34.7739 52.606 34.5864C52.4185 34.399 52.3086 34.1507 52.3086 33.9147C52.3086 33.6788 52.4185 33.4305 52.606 33.2431C52.7934 33.0556 53.0417 32.9458 53.2776 32.9458C53.5136 32.9458 53.7619 33.0556 53.9492 33.2431ZM58.0968 44.9283C58.0635 48.9838 58.0517 49.1729 57.8123 49.4932C57.6749 49.6771 57.4121 49.9399 57.2281 50.0773L56.8935 50.3271H30.0218H3.15005L2.8155 50.0773C2.63151 49.9399 2.36867 49.6771 2.23132 49.4932C1.99186 49.1729 1.98011 48.9838 1.9468 44.9283L1.91204 40.6977H30.0218H58.1315L58.0968 44.9283ZM5.79697 42.794C5.56381 42.8675 5.09869 43.2027 4.7633 43.5387C3.90731 44.3966 3.67088 45.3017 4.00627 46.437C4.20286 47.1024 5.20625 48.1058 5.87158 48.3023C6.25555 48.4158 11.8109 48.4496 30.0446 48.4496C56.7575 48.4496 54.4228 48.5388 55.3729 47.4821C56.4591 46.2741 56.4591 44.8112 55.3729 43.6032C54.4222 42.5458 56.7704 42.6341 29.9699 42.648C13.0251 42.6569 6.09942 42.6987 5.79697 42.794ZM53.9492 44.871C54.3427 45.2643 54.3427 45.821 53.9492 46.2143L53.652 46.5117H30.0218H6.39157L6.09433 46.2143C5.90683 46.0269 5.79697 45.7786 5.79697 45.5427C5.79697 45.3067 5.90683 45.0584 6.09433 44.871L6.39157 44.5737H30.0218H53.652L53.9492 44.871ZM9.67294 57.1706V60.0775H10.6419H11.6109V57.1706V54.2636H10.6419H9.67294V57.1706ZM19.3629 57.1706V60.0775H20.3319H21.3009V57.1706V54.2636H20.3319H19.3629V57.1706ZM29.0528 57.1706V60.0775H30.0218H30.9908V57.1706V54.2636H30.0218H29.0528V57.1706ZM38.7427 57.1706V60.0775H39.7117H40.6807V57.1706V54.2636H39.7117H38.7427V57.1706ZM48.4327 57.1706V60.0775H49.4016H50.3706V57.1706V54.2636H49.4016H48.4327V57.1706Z" fill="#1C1F34"/>
</svg>
