<svg width="16" height="16" viewBox="0 0 16 16" fill="none" xmlns="http://www.w3.org/2000/svg">
<g id="Iconly/Light/Camera">
<g id="Camera">
<path id="Stroke 1" fill-rule="evenodd" clip-rule="evenodd" d="M10.0268 2.70088C10.7002 2.96888 10.9062 3.90221 11.1815 4.20221C11.4568 4.50221 11.8508 4.60421 12.0688 4.60421C13.2275 4.60421 14.1668 5.54354 14.1668 6.70154V10.5649C14.1668 12.1182 12.9068 13.3782 11.3535 13.3782H4.64683C3.09283 13.3782 1.8335 12.1182 1.8335 10.5649V6.70154C1.8335 5.54354 2.77283 4.60421 3.9315 4.60421C4.14883 4.60421 4.54283 4.50221 4.81883 4.20221C5.09416 3.90221 5.2995 2.96888 5.97283 2.70088C6.64683 2.43288 9.3535 2.43288 10.0268 2.70088Z" stroke="white" stroke-width="1.5" stroke-linecap="round" stroke-linejoin="round"/>
<path id="Stroke 13" d="M11.6638 6.33333H11.6698" stroke="white" stroke-width="2" stroke-linecap="round" stroke-linejoin="round"/>
<path id="Stroke 5" fill-rule="evenodd" clip-rule="evenodd" d="M10.1195 8.75202C10.1195 7.58136 9.17086 6.63269 8.00019 6.63269C6.82953 6.63269 5.88086 7.58136 5.88086 8.75202C5.88086 9.92269 6.82953 10.8714 8.00019 10.8714C9.17086 10.8714 10.1195 9.92269 10.1195 8.75202Z" stroke="white" stroke-width="1.5" stroke-linecap="round" stroke-linejoin="round"/>
</g>
</g>
</svg>
