<svg width="74" height="60" viewBox="0 0 74 60" fill="none" xmlns="http://www.w3.org/2000/svg">
<path fill-rule="evenodd" clip-rule="evenodd" d="M46.1482 4.41234C42.6739 7.88675 41.6522 8.98881 41.6522 9.26242C41.6522 9.53003 42.2717 10.2365 44.1922 12.1592C47.1181 15.0884 47.1937 15.1259 48.1687 14.1274L48.73 13.5527L49.9626 14.7797L51.1954 16.0068L51.2052 17.554L51.2149 19.101L46.2539 24.0605L41.2929 29.02L34.2934 22.0193L27.2939 15.0188L27.6314 14.3236C27.8897 13.7915 27.968 13.393 27.9647 12.626C27.9579 10.9882 27.7858 10.7617 22.7275 5.73318C20.2606 3.28079 18.0167 1.15514 17.7411 1.00952C16.9878 0.611195 15.0065 0.636967 14.2332 1.0552C13.9102 1.22973 10.7781 4.25742 7.05114 7.99771C0.714558 14.3569 0.432493 14.6626 0.214287 15.4083C-0.0871075 16.4385 -0.0726463 17.1103 0.270843 18.0256C0.522267 18.6957 1.08597 19.3128 5.17476 23.3943C8.59376 26.8071 9.96213 28.0812 10.4389 28.2952C11.2353 28.6526 12.552 28.6814 13.446 28.3611C14.0678 28.1381 14.1761 28.146 16.5244 28.585C17.863 28.8351 18.9984 29.0837 19.0476 29.1374C19.0969 29.1911 19.7303 30.2658 20.4552 31.5258C21.1803 32.7858 21.8534 33.8996 21.9512 34.0009C22.049 34.1025 23.3947 34.4206 24.9415 34.7081L27.754 35.2309L29.0475 37.4824C29.7589 38.7207 30.341 39.7857 30.341 39.849C30.341 39.9123 27.2513 43.0599 23.475 46.8438C15.8792 54.4548 15.9809 54.3295 15.9809 56.0812C15.9809 58.3335 17.6425 59.9997 19.8888 59.9997C21.6468 59.9997 21.4344 60.1757 30.0546 51.5719L37.8579 43.7833L38.5143 44.9502C38.8752 45.5921 39.3262 46.2288 39.5165 46.3654C39.724 46.5143 40.8366 46.7902 42.2965 47.055C43.6352 47.2978 44.8594 47.5515 45.0169 47.6189C45.1794 47.6884 45.8918 48.777 46.6635 50.135C47.4116 51.4516 48.1203 52.5804 48.2385 52.6436C48.3566 52.7066 49.5486 52.9621 50.8873 53.2114C52.226 53.4607 53.4633 53.6992 53.6367 53.7413C53.8646 53.7967 54.3364 54.4893 55.3422 56.2455C56.1069 57.5807 56.8493 58.7357 56.9922 58.8122C57.4419 59.0529 63.2541 60.0879 63.5427 59.9787C63.6929 59.922 64.6601 59.0546 65.6918 58.0515C67.3374 56.4514 67.5678 56.1705 67.5678 55.7629C67.5678 55.3386 66.6719 54.4021 57.2591 44.986L46.9504 34.6736L51.8637 29.7619L56.7767 24.8504L57.7468 25.0193C58.2801 25.1122 59.049 25.1558 59.4553 25.1162C60.1932 25.0443 60.1953 25.0453 61.3395 26.0036C64.1177 28.3307 66.6247 29.6911 70.8616 31.1708C72.3952 31.7063 72.9095 31.6853 73.1875 31.0753C73.3319 30.7579 73.2867 30.5046 72.8748 29.3252C71.3835 25.0558 69.8535 22.2142 67.6965 19.7081L66.7803 18.6436L66.7607 17.2814C66.7179 14.2988 65.2331 11.7685 62.7485 10.4442C61.5753 9.81896 60.4348 9.54764 58.9797 9.54764H57.7539L56.5021 8.28994L55.2503 7.03239L55.825 6.47113C56.8121 5.50738 56.7733 5.42749 53.9299 2.58236C52.3088 0.960124 51.3199 0.0775624 51.0521 0.0137041C50.6677 -0.0779312 50.385 0.175498 46.1482 4.41234ZM52.5715 3.92954L54.1076 5.47044L50.6343 8.94156L47.161 12.4127L45.5896 10.8363L44.0182 9.25999L47.4517 5.82424C49.34 3.93469 50.9189 2.38863 50.9602 2.38863C51.0016 2.38863 51.7266 3.08205 52.5715 3.92954ZM16.7792 2.73141C17.0337 2.84165 19.2116 4.91175 21.6428 7.35426L26.0456 11.7777V12.5826C26.0456 13.3037 25.9874 13.4602 25.4892 14.0807C25.183 14.4619 22.2675 17.426 19.0103 20.6676C12.6014 27.0455 12.7805 26.9029 11.477 26.6618C11.0124 26.5759 10.3489 25.9714 6.54815 22.1715C2.81172 18.4358 2.13362 17.6939 2.00418 17.1999C1.70436 16.0552 1.6594 16.1102 8.47034 9.28347C11.9549 5.79088 14.9992 2.84552 15.2355 2.73814C15.7906 2.486 16.2085 2.48413 16.7792 2.73141ZM17.0968 8.88901C16.5506 9.14902 15.4431 10.1751 12.4235 13.2188C10.2469 15.4127 8.35193 17.4333 8.21233 17.7089C7.85968 18.4055 7.87986 19.6297 8.25614 20.3636C8.68353 21.1971 10.5782 22.9523 11.2528 23.1396C11.9495 23.333 12.511 23.3316 13.2309 23.1346C13.7072 23.0041 14.4979 22.2868 17.9237 18.8777C20.5516 16.2625 22.1462 14.566 22.3265 14.1935C22.6662 13.4918 22.6977 12.3273 22.3963 11.6063C22.1075 10.9149 20.3476 9.18224 19.5808 8.83417C18.7517 8.45804 17.9658 8.47536 17.0968 8.88901ZM55.5006 10.0087L56.9689 11.4718L58.7246 11.4763C60.3943 11.4804 60.5272 11.5028 61.4368 11.9337C62.7681 12.5644 63.597 13.376 64.241 14.6794C64.7583 15.7263 64.7765 15.8155 64.799 17.4154C64.8117 18.3249 64.8277 19.1344 64.8348 19.2142C64.8416 19.2939 65.3008 19.8738 65.8549 20.5028C67.0271 21.8334 68.4708 23.9392 69.1909 25.369C69.8369 26.6518 70.7425 28.9 70.6503 28.9921C70.5381 29.1043 68.057 28.0522 66.5662 27.2603C65.001 26.429 63.6265 25.4704 62.1985 24.2147C61.6473 23.7299 61.0674 23.2693 60.9099 23.1913C60.7453 23.1097 60.2285 23.0896 59.6936 23.144C57.0634 23.4116 54.7781 22.1814 53.6503 19.8911C53.2031 18.9831 53.1768 18.8416 53.1506 17.2111C53.1354 16.2642 53.1193 15.4319 53.1148 15.3615C53.1103 15.291 52.4485 14.5647 51.6443 13.7474L50.1821 12.2615L52.036 10.4034C53.0556 9.38155 53.922 8.54538 53.9611 8.54538C54.0003 8.54538 54.693 9.20386 55.5006 10.0087ZM19.9568 11.5731C21.2397 12.9589 21.3865 12.6883 16.9178 17.1763C14.8112 19.292 12.9111 21.1163 12.6953 21.2303C12.1073 21.541 11.6966 21.358 10.7356 20.3572C9.33715 18.901 9.18538 19.1931 13.6963 14.6573C15.8029 12.5391 17.715 10.7236 17.9459 10.6228C18.5601 10.3545 19.0375 10.5801 19.9568 11.5731ZM32.9547 23.401L39.9345 30.3818L35.882 34.4323L31.8296 38.4829L30.5484 36.2471C29.8437 35.0175 29.1546 33.8901 29.0171 33.7416C28.8797 33.5933 28.5253 33.4285 28.2296 33.3755C27.934 33.3226 26.6713 33.078 25.4236 32.832L23.155 32.3849L21.7613 29.9677C20.8673 28.4171 20.2435 27.4887 20.0208 27.3779C19.8301 27.2828 18.8364 27.0566 17.8127 26.8752C16.789 26.6937 15.922 26.5198 15.8861 26.4886C15.8179 26.4291 25.7749 16.4203 25.9021 16.4203C25.9423 16.4203 29.1159 19.5617 32.9547 23.401ZM52.4428 21.6822C52.843 22.3106 53.6106 23.1167 54.3335 23.6681L54.8458 24.0589L38.0475 40.8667C28.8084 50.111 21.0751 57.767 20.8624 57.8801C20.3556 58.1496 19.4107 58.142 18.8731 57.8639C17.9794 57.4017 17.5729 55.9003 18.1181 55.075C18.4063 54.6388 51.8476 21.1452 51.9949 21.1452C52.0531 21.1452 52.2547 21.3869 52.4428 21.6822ZM65.2413 55.7945C65.2215 55.834 64.6899 56.3609 64.0599 56.9653L62.9144 58.0642L60.5008 57.6096L58.0874 57.155L56.6801 54.7258C55.9061 53.3897 55.1774 52.2269 55.061 52.1417C54.9445 52.0565 53.6163 51.7646 52.1095 51.4928L49.3699 50.9989L47.9809 48.5828C47.2169 47.2541 46.463 46.0839 46.3055 45.9824C46.148 45.8807 44.7956 45.5683 43.3002 45.288C41.8047 45.0076 40.5632 44.728 40.5414 44.6667C40.5195 44.6053 40.2171 44.0719 39.8693 43.4813L39.237 42.4075L42.4126 39.2213L45.5881 36.0351L55.4326 45.8789C60.8471 51.2929 65.261 55.755 65.2413 55.7945Z" fill="#1C1F34"/>
</svg>
