<svg width="16" height="16" viewBox="0 0 16 16" fill="none" xmlns="http://www.w3.org/2000/svg">
<path fill-rule="evenodd" clip-rule="evenodd" d="M12.7142 12.7132C10.6767 14.7509 7.65977 15.1911 5.19086 14.0493C4.82639 13.9026 4.52758 13.784 4.2435 13.784C3.45224 13.7887 2.46736 14.5559 1.95549 14.0446C1.44362 13.5327 2.21143 12.547 2.21143 11.751C2.21143 11.4669 2.09753 11.1734 1.9508 10.8082C0.808472 8.33973 1.24932 5.32177 3.28676 3.28478C5.88765 0.682934 10.1133 0.682934 12.7142 3.28411C15.3197 5.88998 15.3151 10.112 12.7142 12.7132Z" stroke="#1C1F34" stroke-width="1.5" stroke-linecap="round" stroke-linejoin="round"/>
<path d="M10.6262 8.27529H10.6322" stroke="#1C1F34" stroke-width="1.5" stroke-linecap="round" stroke-linejoin="round"/>
<path d="M7.95362 8.27529H7.95962" stroke="#1C1F34" stroke-width="1.5" stroke-linecap="round" stroke-linejoin="round"/>
<path d="M5.28077 8.27529H5.28677" stroke="#1C1F34" stroke-width="1.5" stroke-linecap="round" stroke-linejoin="round"/>
</svg>
