<svg width="105" height="105" viewBox="0 0 105 105" fill="none" xmlns="http://www.w3.org/2000/svg">
<path fill-rule="evenodd" clip-rule="evenodd" d="M47.1019 0.26248C26.3198 2.43101 8.70362 16.6572 2.48983 36.2898C0.719155 41.8838 -0.00302591 46.637 9.52578e-06 52.6752C0.00430973 61.1893 1.63004 68.371 5.20578 75.6736C7.89644 81.1688 11.0659 85.5299 15.6274 90.0133C23.5049 97.7554 33.0306 102.555 44.4439 104.533C48.3343 105.207 57.1021 105.14 61.114 104.406C69.9744 102.785 76.9546 99.7442 84.1534 94.3711C100.655 82.0545 108.275 60.9228 103.6 40.4436C103.25 38.9102 103.001 38.4032 102.211 37.614C100.56 35.9639 98.2844 35.9604 96.6379 37.6054C95.3418 38.9009 95.2166 39.8238 95.8874 43.1467C96.9154 48.2385 97.1496 52.4934 96.6528 57.0453C95.2431 69.9584 88.6444 81.294 78.1906 88.7601C73.7434 91.9361 67.2739 94.8069 61.8867 95.9946C42.2156 100.331 21.564 90.3594 12.4812 72.1386C6.56743 60.2755 6.53885 45.4568 12.4058 33.2118C14.8757 28.057 17.4034 24.5867 21.7231 20.42C31.8569 10.6453 46.8181 6.18694 60.4955 8.86606C64.2427 9.60011 65.8029 9.61604 66.7222 8.93002C68.5022 7.60145 69.04 5.6364 68.1177 3.82959C67.3136 2.25457 66.4085 1.76369 63.0751 1.09435C57.6857 0.0122363 52.2257 -0.272132 47.1019 0.26248ZM99.4502 8.83143C99.1024 8.97476 88.3752 19.5224 75.612 32.2707L52.4061 55.4496L44.7517 47.825C36.5649 39.6698 36.465 39.5942 34.411 40.0047C32.3972 40.4071 30.9637 42.5433 31.2749 44.6782C31.4411 45.8187 31.7034 46.1079 40.9749 55.3768C51.2905 65.6899 51.035 65.4897 53.3496 65.0726C54.1934 64.9207 57.0556 62.1485 79.278 39.958C93.4646 25.7919 104.434 14.6434 104.665 14.1561C105.444 12.5151 104.828 10.4679 103.185 9.24193C102.42 8.67143 100.383 8.44747 99.4502 8.83143Z" fill="#5F60B9"/>
</svg>
