<svg width="16" height="16" viewBox="0 0 16 16" fill="none" xmlns="http://www.w3.org/2000/svg">
<path fill-rule="evenodd" clip-rule="evenodd" d="M7.74364 0.0542876C7.5891 0.121242 7.4477 0.256988 7.36496 0.417889C7.30233 0.539645 7.29936 0.615823 7.30849 1.86708L7.31815 3.18772L7.41394 3.33242C7.53083 3.50897 7.78894 3.64149 8.01595 3.64149C8.24295 3.64149 8.50107 3.50897 8.61795 3.33242L8.71374 3.18772L8.72341 1.86708C8.73253 0.615823 8.72957 0.539645 8.66694 0.417889C8.4866 0.0672564 8.08178 -0.0921808 7.74364 0.0542876ZM12.7863 2.16999C12.5701 2.28699 10.9657 3.92043 10.8907 4.09995C10.6584 4.65611 11.266 5.2848 11.8144 5.05569C11.9851 4.98431 11.9978 4.97264 12.9035 4.05005C13.8032 3.1336 13.8664 3.0437 13.8248 2.74004C13.8012 2.5678 13.7056 2.36065 13.6098 2.27398C13.5013 2.17585 13.2477 2.07792 13.1001 2.07714C13.01 2.07666 12.897 2.11009 12.7863 2.16999ZM2.58678 2.21959C2.31341 2.31514 2.09424 2.62414 2.09356 2.91496C2.09291 3.18125 2.22202 3.34412 3.15026 4.24805C4.10307 5.17592 4.19085 5.238 4.48709 5.19358C4.84947 5.13926 5.13958 4.81177 5.13736 4.45957C5.13668 4.3516 5.11197 4.22627 5.07916 4.16449C4.98358 3.98449 3.34121 2.37828 3.1442 2.27211C2.9592 2.17245 2.77209 2.15481 2.58678 2.21959ZM7.33517 4.71425C6.31817 4.94122 5.46567 5.60538 5.01945 6.51843C4.7449 7.08021 4.69718 7.29945 4.69718 7.99912C4.69718 8.51865 4.70712 8.62914 4.77502 8.86353C5.11303 10.0305 5.98452 10.902 7.15153 11.24C7.38592 11.3079 7.49641 11.3179 8.01595 11.3179C8.54178 11.3179 8.64355 11.3085 8.88393 11.2377C10.0477 10.8951 10.912 10.0309 11.2546 8.8671C11.3253 8.62672 11.3347 8.52495 11.3347 7.99912C11.3347 7.47958 11.3248 7.36909 11.2569 7.1347C10.921 5.97514 10.0509 5.10018 8.89867 4.76323C8.56707 4.66625 7.67536 4.63834 7.33517 4.71425ZM8.59705 6.19265C9.75866 6.55343 10.2826 7.99244 9.62121 9.00571C9.24273 9.58562 8.69383 9.88693 8.01595 9.88693C7.33926 9.88693 6.78177 9.58185 6.41147 9.00891C5.89258 8.2061 6.08561 7.08487 6.84161 6.51054C7.36118 6.11579 7.98558 6.00275 8.59705 6.19265ZM0.362965 7.35674C0.0904178 7.49276 -0.0518638 7.8213 0.0173708 8.15481C0.064174 8.38015 0.268678 8.6272 0.453134 8.68118C0.53612 8.70545 1.02257 8.71434 1.89154 8.70739L3.20455 8.69691L3.34925 8.60112C3.5258 8.48423 3.65832 8.22612 3.65832 7.99912C3.65832 7.77211 3.5258 7.514 3.34925 7.39711L3.20455 7.30132L1.8575 7.29223C0.535711 7.28332 0.507664 7.28451 0.362965 7.35674ZM12.7289 7.34768C12.2274 7.57768 12.2158 8.37361 12.7101 8.63469C12.8596 8.71366 12.8645 8.71393 14.1664 8.71393C15.6008 8.71393 15.6022 8.71376 15.8036 8.5069C16.1103 8.19201 16.0492 7.6363 15.6803 7.38336L15.5606 7.30132L14.2135 7.29295C12.9638 7.28519 12.8565 7.28917 12.7289 7.34768ZM11.3323 10.8888C10.9868 11.0457 10.8174 11.4888 10.9732 11.8285C11.0411 11.9768 12.614 13.5633 12.8505 13.7221C13.0338 13.8452 13.1896 13.8685 13.4069 13.8054C13.7071 13.7181 13.9247 13.4589 13.9607 13.1456C13.993 12.8636 13.8893 12.7288 12.9005 11.768C11.9632 10.8573 11.9165 10.8233 11.6031 10.8251C11.5304 10.8255 11.4085 10.8541 11.3323 10.8888ZM4.22264 10.9412C4.04908 11.0056 2.36403 12.6774 2.26266 12.8859C2.08832 13.2443 2.24888 13.6759 2.62763 13.8669C2.7919 13.9498 3.10264 13.939 3.2571 13.8451C3.41916 13.7466 5.03021 12.0924 5.11013 11.9424C5.20806 11.7587 5.19428 11.4555 5.07909 11.2592C4.90988 10.971 4.5264 10.8286 4.22264 10.9412ZM7.67556 12.4327C7.59131 12.4777 7.47643 12.5797 7.42027 12.6595L7.31815 12.8044V14.174V15.5437L7.40019 15.6634C7.50959 15.823 7.65646 15.9191 7.86488 15.9672C8.18873 16.0419 8.56114 15.8594 8.68474 15.5653C8.72068 15.4798 8.73076 15.1732 8.73076 14.1665C8.73076 12.8827 8.73042 12.8767 8.65155 12.7273C8.5299 12.4969 8.33557 12.3778 8.05703 12.363C7.86641 12.3528 7.80344 12.3643 7.67556 12.4327Z" fill="#6C757D"/>
</svg>
