<svg width="20" height="20" viewBox="0 0 20 20" fill="none" xmlns="http://www.w3.org/2000/svg">
<path fill-rule="evenodd" clip-rule="evenodd" d="M4.09672 10C4.09672 9.35046 4.2046 8.72774 4.39715 8.14364L1.02691 5.57001C0.37007 6.90364 0 8.40637 0 10C0 11.5923 0.369615 13.0941 1.02555 14.4268L4.39396 11.8482C4.20323 11.2668 4.09672 10.6464 4.09672 10Z" fill="#FBBC05"/>
<path fill-rule="evenodd" clip-rule="evenodd" d="M10.0141 4.09091C11.4252 4.09091 12.6998 4.59091 13.7012 5.40909L16.6144 2.5C14.8392 0.954545 12.5632 0 10.0141 0C6.05672 0 2.65553 2.26318 1.02686 5.57L4.39709 8.14364C5.17365 5.78636 7.38724 4.09091 10.0141 4.09091Z" fill="#EB4335"/>
<path fill-rule="evenodd" clip-rule="evenodd" d="M10.0141 15.9092C7.38724 15.9092 5.17365 14.2137 4.39709 11.8564L1.02686 14.4296C2.65553 17.7369 6.05672 20.0001 10.0141 20.0001C12.4567 20.0001 14.7886 19.1328 16.5389 17.5078L13.3398 15.0346C12.4371 15.6033 11.3005 15.9092 10.0141 15.9092Z" fill="#34A853"/>
<path fill-rule="evenodd" clip-rule="evenodd" d="M19.5732 10C19.5732 9.4091 19.4821 8.77273 19.3456 8.18182H10.0142V12.0455H15.3854C15.1169 13.3627 14.3858 14.3755 13.3398 15.0346L16.5389 17.5077C18.3774 15.8014 19.5732 13.2596 19.5732 10Z" fill="#4285F4"/>
</svg>
