<svg width="15" height="15" viewBox="0 0 15 15" fill="none" xmlns="http://www.w3.org/2000/svg">
<path fill-rule="evenodd" clip-rule="evenodd" d="M6.85309 0.0292827C5.96479 0.107773 4.90371 0.404197 4.13905 0.787483C1.1991 2.26123 -0.450719 5.53823 0.107917 8.79445C0.358942 10.2574 1.0498 11.5976 2.12409 12.7052C2.79417 13.3962 3.39737 13.8358 4.23673 14.2451C6.00394 15.1067 7.99753 15.2322 9.89661 14.6014C13.4599 13.4179 15.6098 9.68232 14.8464 6.00102C14.5567 4.60375 13.8734 3.31791 12.8629 2.26855C11.3053 0.650964 9.10329 -0.169488 6.85309 0.0292827ZM8.04221 1.18109C8.90391 1.25734 9.56074 1.44309 10.3355 1.82962C10.9959 2.1591 11.4289 2.47173 11.9595 3.00236C13.8944 4.9372 14.3889 7.75528 13.226 10.2199C12.3888 11.9943 10.7647 13.2808 8.83707 13.6964C6.77373 14.1414 4.66351 13.5486 3.14162 12.0965C1.05836 10.1087 0.561105 7.09516 1.89429 4.53724C2.19385 3.96247 2.52218 3.52397 3.04476 3.00063C3.75637 2.28801 4.51999 1.81132 5.4461 1.50169C6.33631 1.20404 7.15687 1.10271 8.04221 1.18109ZM6.69567 3.83353C5.95941 4.01859 5.3797 4.56863 5.13809 5.31135C5.0499 5.58251 5.04272 5.63693 5.07927 5.75887C5.22185 6.2348 5.78099 6.34927 6.09958 5.96775C6.13556 5.92466 6.16554 5.87782 6.16623 5.86371C6.17146 5.7514 6.34122 5.41503 6.46172 5.27812C6.7035 5.00345 6.838 4.95123 7.30418 4.95116C7.65575 4.95113 7.72388 4.96177 7.89984 5.04434C8.36425 5.2622 8.57381 5.67742 8.42203 6.07886C8.37125 6.21307 8.22311 6.38738 7.73965 6.88181C7.24749 7.38516 7.09552 7.56463 6.99108 7.76596C6.80065 8.13304 6.74482 8.35765 6.74482 8.75653C6.74482 9.06378 6.75467 9.11697 6.83284 9.23202C7.06539 9.57423 7.62446 9.54905 7.81118 9.18799C7.84134 9.12967 7.87913 8.94014 7.89519 8.76678C7.91139 8.59157 7.95285 8.39554 7.98854 8.32532C8.02384 8.25585 8.30413 7.94936 8.61134 7.64423C8.91859 7.33911 9.23353 6.99116 9.31123 6.87099C9.5843 6.44847 9.68925 5.88525 9.5808 5.42434C9.41498 4.71973 8.88644 4.15684 8.14628 3.89665C7.92243 3.81797 7.80638 3.80181 7.3944 3.79199C7.0507 3.78376 6.84493 3.796 6.69567 3.83353ZM7.00613 10.1635C6.83468 10.2711 6.74511 10.4391 6.74497 10.6536C6.74446 11.3218 7.71478 11.4208 7.86213 10.7675C7.90486 10.5781 7.84196 10.3744 7.69746 10.2344C7.58949 10.1297 7.54658 10.1135 7.34904 10.1024C7.1695 10.0923 7.09985 10.1047 7.00613 10.1635Z" fill="#6C757D"/>
</svg>
