<svg width="16" height="16" viewBox="0 0 16 16" fill="none" xmlns="http://www.w3.org/2000/svg">
<path fill-rule="evenodd" clip-rule="evenodd" d="M7.24852 0.0231692C6.36966 0.103872 5.2744 0.419813 4.45345 0.829423C3.56904 1.27074 2.96282 1.71429 2.26283 2.43224C0.720702 4.0139 -0.0880542 6.12405 0.0076154 8.31621C0.135766 11.2526 1.80882 13.8397 4.42802 15.1516C7.22773 16.554 10.5419 16.1983 13.026 14.2289C13.4054 13.9281 14.1197 13.1824 14.4191 12.7744C15.9743 10.6551 16.4109 7.95264 15.597 5.48393C15.4049 4.90113 14.8816 3.86997 14.5296 3.38034C13.1706 1.49033 11.1485 0.30258 8.84074 0.0387272C8.45342 -0.00553646 7.64726 -0.0134063 7.24852 0.0231692ZM8.23943 1.50812C8.47162 1.60515 8.87304 2.07754 9.10496 2.52659C9.67957 3.63914 10.0128 5.05649 10.1534 6.98557L10.1741 7.2699H7.99427H5.81443L5.83609 7.0993C5.84801 7.0055 5.86971 6.74447 5.88431 6.51928C5.947 5.5534 6.21981 4.2082 6.5227 3.37151C6.75357 2.73372 7.06988 2.15551 7.35825 1.84398C7.71272 1.46112 7.92945 1.37856 8.23943 1.50812ZM5.54257 1.98283C5.54257 2.00239 5.47334 2.18249 5.38872 2.38311C4.85797 3.64155 4.4853 5.27849 4.41265 6.67L4.38253 7.24715L2.93407 7.25916L1.48556 7.27117L1.51513 7.0772C1.58036 6.64925 1.78385 5.91647 1.95144 5.50613C2.54561 4.05143 3.6472 2.86896 5.08561 2.14182C5.4792 1.94284 5.54257 1.92077 5.54257 1.98283ZM10.7086 2.03951C11.0715 2.19505 11.7333 2.60748 12.1201 2.91919C13.3767 3.93175 14.2336 5.43958 14.4832 7.0772L14.5127 7.27117L13.0642 7.25916L11.6157 7.24715L11.5856 6.67C11.513 5.27849 11.1403 3.64155 10.6096 2.38311C10.4604 2.02945 10.435 1.94734 10.4747 1.94734C10.4851 1.94734 10.5904 1.98883 10.7086 2.03951ZM4.41265 9.32554C4.48539 10.719 4.82594 12.2262 5.36998 13.5621C5.46997 13.8077 5.54239 14.0181 5.53088 14.0295C5.46824 14.0922 4.62095 13.6289 4.10935 13.2523C2.72171 12.2308 1.78021 10.658 1.51513 8.91834L1.48556 8.72437L2.93407 8.73638L4.38253 8.74839L4.41265 9.32554ZM10.1534 9.00997C9.97599 11.4449 9.42095 13.3156 8.62279 14.1688C8.15304 14.671 7.84524 14.671 7.37549 14.1688C6.64621 13.3892 6.00796 11.3808 5.88431 9.47626C5.86971 9.25107 5.84801 8.99009 5.83609 8.89624L5.81443 8.72564H7.99427H10.1741L10.1534 9.00997ZM14.483 8.91898C14.1824 10.8926 13.029 12.6161 11.3379 13.6183C10.9035 13.8758 10.5029 14.0651 10.4674 14.0295C10.4559 14.0181 10.5283 13.8077 10.6283 13.5621C11.1692 12.2338 11.5197 10.6903 11.5767 9.38527C11.5898 9.08503 11.6085 8.8138 11.6181 8.78251C11.6316 8.73856 11.963 8.72564 13.0741 8.72564H14.5125L14.483 8.91898Z" fill="#6C757D"/>
</svg>
