<svg width="17" height="16" viewBox="0 0 17 16" fill="none" xmlns="http://www.w3.org/2000/svg">
<mask id="mask0_1_12804" style="mask-type:luminance" maskUnits="userSpaceOnUse" x="0" y="0" width="17" height="16">
<path fill-rule="evenodd" clip-rule="evenodd" d="M0 0H16.84V16H0V0Z" fill="white"/>
</mask>
<g mask="url(#mask0_1_12804)">
<path fill-rule="evenodd" clip-rule="evenodd" d="M1.5003 7.48523C2.65354 11.0641 7.20973 13.9579 8.42055 14.6742C9.63548 13.9505 14.2246 11.0247 15.3408 7.48852C16.0737 5.20268 15.3934 2.30724 12.6905 1.43836C11.381 1.0191 9.85346 1.27427 8.79893 2.08818C8.57848 2.25719 8.27249 2.26048 8.0504 2.0931C6.93335 1.2554 5.47412 1.01008 4.14403 1.43836C1.44519 2.30642 0.767394 5.20186 1.5003 7.48523ZM8.4214 16.0001C8.3194 16.0001 8.21822 15.9755 8.1261 15.9254C7.86863 15.7851 1.80385 12.4507 0.325701 7.86103C0.324878 7.86103 0.324878 7.86021 0.324878 7.86021C-0.602977 4.97051 0.430167 1.33911 3.76567 0.26675C5.33184 -0.23866 7.03866 -0.0163126 8.41893 0.852566C9.75642 0.00912205 11.5332 -0.223892 13.0681 0.26675C16.4069 1.34075 17.4433 4.97133 16.5163 7.86021C15.0858 12.3974 8.97663 15.7819 8.71752 15.9238C8.62539 15.9747 8.5234 16.0001 8.4214 16.0001Z" fill="#5F60B9"/>
</g>
<path fill-rule="evenodd" clip-rule="evenodd" d="M13.287 6.25626C12.9687 6.25626 12.6989 6.01258 12.6726 5.69096C12.6183 5.01653 12.1659 4.44712 11.5218 4.23954C11.1969 4.13452 11.0192 3.78747 11.1237 3.46502C11.2298 3.14175 11.5744 2.96617 11.9002 3.06791C13.0213 3.42974 13.8069 4.42005 13.9031 5.59086C13.9303 5.92971 13.6777 6.22673 13.338 6.2538C13.3208 6.25544 13.3043 6.25626 13.287 6.25626Z" fill="#5F60B9"/>
</svg>
