<svg width="53" height="60" viewBox="0 0 53 60" fill="none" xmlns="http://www.w3.org/2000/svg">
<path fill-rule="evenodd" clip-rule="evenodd" d="M5.66393 0.0879076C3.17247 0.679959 1.16708 3.37494 0.255296 7.35626C0.00164321 8.46442 0 8.55058 0 21.1481V33.8249L0.310815 34.4878C0.90181 35.7482 2.0858 36.6004 3.46263 36.756C4.05797 36.8234 4.40576 36.7648 5.53739 36.4064C5.79093 36.3263 5.79316 36.3395 5.83084 38.0684C5.86511 39.6362 5.89774 39.8697 6.15621 40.3949C6.79932 41.7019 7.98858 42.4798 9.44888 42.5486C11.4667 42.6435 13.0609 41.3624 13.4295 39.3493C13.5005 38.9621 13.5571 37.2817 13.5571 35.5639C13.5571 33.865 13.5851 32.475 13.6195 32.475C13.6539 32.475 13.8783 32.5625 14.1184 32.6693C14.3962 32.793 14.8756 32.8646 15.4375 32.8664C16.9523 32.8712 18.2228 32.0958 18.9044 30.7505L19.2499 30.0688L19.2845 25.6993L19.3193 21.3299L32.8416 21.2976C46.3192 21.2656 46.3663 21.2647 47.0248 21.0152C48.096 20.6096 49.2181 19.7237 49.9642 18.6949L50.2962 18.2371V19.6588C50.2962 20.8106 50.2499 21.2043 50.0525 21.7319C49.7541 22.5294 48.8834 23.4611 48.0975 23.8241C47.541 24.081 47.4878 24.0829 38.7932 24.1494C29.2534 24.2223 29.5418 24.2013 28.2212 24.9198C26.8987 25.6394 25.964 26.7621 25.4742 28.2195L25.2077 29.0124L24.5763 29.044C23.3285 29.1063 23.182 29.3638 23.182 31.4948V32.9445H22.5312C21.9965 32.9445 21.8287 32.996 21.5921 33.2327L21.304 33.5207V46.4833C21.304 59.0712 21.3104 59.4538 21.5284 59.7229L21.7527 60H26.1165H30.4802L30.7045 59.7229C30.9225 59.4538 30.9289 59.0712 30.9289 46.4833V33.5207L30.6408 33.2327C30.4043 32.996 30.2364 32.9445 29.7018 32.9445H29.0509V31.4849C29.0509 29.4302 28.8768 29.0818 27.8478 29.0748C27.2139 29.0706 27.1892 29.0117 27.5171 28.2892C27.8238 27.6137 28.5971 26.8759 29.3857 26.5061L30.0486 26.1953L38.8519 26.1348C47.5051 26.0752 47.6666 26.0699 48.321 25.8215C50.2778 25.0786 51.6114 23.5907 52.1206 21.5828C52.2839 20.9391 52.3018 20.0378 52.2603 14.5988C52.2158 8.77806 52.1958 8.28225 51.9673 7.29758C51.1623 3.83013 49.6268 1.46592 47.5293 0.464454L46.5988 0.0201809L26.3512 0.00175262C14.8538 -0.00869397 5.91359 0.0285146 5.66393 0.0879076ZM7.87191 2.17875C9.11388 2.74287 10.2351 4.29013 10.9061 6.36583C12.0953 10.0444 11.5887 14.6454 9.68598 17.4472C9.12503 18.2733 8.64613 18.6897 7.82085 19.0691C6.18168 19.8226 4.45142 18.8657 3.25793 16.5454C2.34262 14.7662 1.93661 12.957 1.93684 10.6593C1.9372 7.39418 2.79581 4.78476 4.44766 3.02891C5.38738 2.0298 6.78183 1.68365 7.87191 2.17875ZM46.7162 2.23767C48.8209 3.23655 50.2956 6.70588 50.2961 10.6593C50.2964 14.3842 48.912 17.7722 46.908 18.9503L46.364 19.2701L28.5368 19.3009L10.7094 19.3317L10.901 19.0662C12.9279 16.2555 13.8062 12.8618 13.4683 9.14509C13.252 6.76363 12.6108 4.86669 11.3661 2.92527L10.7453 1.95691L28.4372 1.95808L46.1293 1.95925L46.7162 2.23767ZM5.68576 6.09575C4.3689 6.98324 3.611 9.29616 3.89787 11.5518C4.13309 13.4008 4.80684 14.6851 5.80736 15.1912C7.7739 16.1861 9.5652 14.0576 9.58562 10.7015C9.60358 7.76544 8.43896 5.83036 6.65389 5.83036C6.25187 5.83036 5.96148 5.90994 5.68576 6.09575ZM7.08736 8.09656C7.86158 9.34921 7.85959 12.0429 7.08372 13.1325C6.78136 13.5571 6.56527 13.5465 6.33216 13.0958C5.59843 11.6768 5.64174 9.12256 6.41819 8.03118C6.71293 7.61672 6.7958 7.62482 7.08736 8.09656ZM3.13151 19.6581C3.85303 20.3451 4.42395 20.7183 5.20815 21.0152C5.84469 21.2563 6.08015 21.2668 11.6552 21.3009L17.4417 21.3364L17.4067 25.4678C17.3721 29.5717 17.37 29.6022 17.0959 30.0431C16.5583 30.9079 15.2848 31.2199 14.4869 30.6822C14.2691 30.5355 13.9707 30.2371 13.824 30.0192C13.5761 29.6515 13.5571 29.4988 13.5571 27.8799V26.1366H12.5594H11.5617V32.6558C11.5617 38.9089 11.5523 39.1933 11.3306 39.6279C10.7697 40.7273 9.35603 41.0007 8.43121 40.1886C7.69585 39.543 7.68822 39.49 7.68822 35.0024V30.9491H6.76422H5.84034L5.78788 32.2212C5.72719 33.694 5.53657 34.1337 4.77291 34.5629C3.85573 35.0784 2.68419 34.7707 2.18533 33.8831C1.93919 33.4453 1.93673 33.3643 1.93673 25.839V18.2371L2.26867 18.6949C2.45131 18.9467 2.83948 19.3802 3.13151 19.6581ZM27.0555 31.9468V32.9445H26.1165H25.1774V31.9468V30.9491H26.1165H27.0555V31.9468ZM29.0509 46.4429V58.0633H26.1165H23.182V46.4429V34.8226H26.1165H29.0509V46.4429ZM25.1774 55.1875V56.1852H26.1165H27.0555V55.1875V54.1898H26.1165H25.1774V55.1875Z" fill="#1C1F34"/>
</svg>
