<svg width="53" height="60" viewBox="0 0 53 60" fill="none" xmlns="http://www.w3.org/2000/svg">
<path fill-rule="evenodd" clip-rule="evenodd" d="M21.3151 0.149028C20.7207 0.336383 19.7069 1.38615 19.5246 2.00308C19.1892 3.13859 19.4257 4.04388 20.2816 4.89975C20.968 5.58619 21.5193 5.80395 22.5705 5.80395H23.2528V7.74168V9.67942H22.5705C21.5193 9.67942 20.968 9.89717 20.2816 10.5836C19.5636 11.3015 19.3774 11.817 19.3774 13.0854V13.9803L18.8626 14.1397C18.007 14.4045 16.703 15.1136 15.7769 15.8177C13.8973 17.2466 12.5879 19.2527 11.9157 21.733C11.6974 22.5388 11.687 23.239 11.687 37.0562V51.5349L12.1393 52.4501C12.6841 53.5524 13.3853 54.239 14.5112 54.7724L15.3202 55.1557H27.1283H38.9364L39.7454 54.7724C40.8713 54.239 41.5726 53.5524 42.1173 52.4501L42.5696 51.5349V37.0562C42.5696 23.2253 42.5593 22.5396 42.3401 21.7297C42.2139 21.2634 42.0077 20.6413 41.8817 20.3473L41.6527 19.8124L43.1104 18.3382C44.837 16.5916 44.8885 16.4404 44.0618 15.5437L43.5557 14.9946L45.0605 13.4862C46.7191 11.8236 47.1922 11.5401 48.132 11.6461C48.9919 11.743 49.7044 12.2348 50.0711 12.9842L50.3846 13.625L50.3526 34.0334L50.3206 54.4416L49.8682 55.3568C49.3235 56.459 48.6222 57.1456 47.4963 57.679L46.6873 58.0623H27.6127H8.53815L7.72914 57.679C6.60356 57.1457 5.90198 56.459 5.35723 55.3571L4.90489 54.4422L4.86832 49.5005L4.83175 44.5587H5.99414C7.06668 44.5587 7.17931 44.5358 7.45362 44.2613L7.75094 43.9641V34.87V25.7758L7.45362 25.4786C7.17955 25.2044 7.06632 25.1813 6.00032 25.1813H4.84434L4.84555 22.7894C4.84664 20.5196 4.86142 20.3666 5.13573 19.792C5.35215 19.3387 6.15861 18.456 8.34389 16.2808C9.94943 14.6827 11.2631 13.3181 11.2631 13.2485C11.2631 13.0872 10.145 11.9805 9.982 11.9805C9.91479 11.9805 8.48874 13.3583 6.81308 15.0423C4.09286 17.7761 3.72348 18.1947 3.3667 18.9481L2.96716 19.792L2.92683 22.4866L2.8865 25.1813H1.74045C0.685232 25.1813 0.571027 25.2048 0.297322 25.4786L0 25.7758V34.87V43.9641L0.297322 44.2613C0.57139 44.5355 0.684627 44.5587 1.75062 44.5587H2.9066V49.1991C2.9066 51.963 2.95892 54.1301 3.03607 54.5581C3.45898 56.9062 5.29547 58.9374 7.75094 59.7733C8.39088 59.991 9.17167 60 27.6127 60C46.0538 60 46.8346 59.991 47.4745 59.7733C49.6756 59.024 51.2432 57.488 51.9783 55.3603L52.2583 54.5501V33.7775V13.0048L51.8647 12.2053C51.3981 11.2575 50.638 10.5133 49.6757 10.0621C49.0871 9.78624 48.8319 9.7407 47.8984 9.74494C46.2928 9.75233 45.7748 10.0366 43.7533 12.0196L42.1516 13.5911L41.6063 13.0885C40.73 12.2807 40.5466 12.3361 38.9794 13.8804L37.6658 15.1748L36.7873 14.7413C36.3041 14.5028 35.677 14.2388 35.394 14.1544L34.8792 14.0009V13.0956C34.8792 11.8167 34.6943 11.3029 33.9751 10.5836C33.2886 9.89717 32.7373 9.67942 31.6861 9.67942H31.0038V7.74168V5.80395H31.7089C32.7607 5.80395 33.4533 5.51983 34.0677 4.83653C34.3557 4.5162 34.656 4.03794 34.7352 3.77368C35.0499 2.72355 34.8332 1.80955 34.0677 0.958154C33.1917 -0.0162852 33.2289 -0.0111987 27.0765 0.00309212C23.5561 0.0112064 21.5946 0.060982 21.3151 0.149028ZM32.6442 2.2258C32.8317 2.41315 32.9415 2.66142 32.9415 2.89734C32.9415 3.13326 32.8317 3.38153 32.6442 3.56889L32.347 3.86621H27.1283H21.9096L21.6124 3.56889C21.4249 3.38153 21.3151 3.13326 21.3151 2.89734C21.3151 2.66142 21.4249 2.41315 21.6124 2.2258L21.9096 1.92848H27.1283H32.347L32.6442 2.2258ZM29.066 7.74168V9.67942H27.1283H25.1906V7.74168V5.80395H27.1283H29.066V7.74168ZM32.6442 11.9145C32.8883 12.1585 32.9415 12.3317 32.9415 12.8833V13.5549H27.1283H21.3151V12.8833C21.3151 12.3317 21.3683 12.1585 21.6124 11.9145L21.9096 11.6172H27.1283H32.347L32.6442 11.9145ZM41.481 15.7362L42.2013 16.4642L41.4167 17.2429L40.6319 18.0216L39.949 17.1966L39.2659 16.3715L39.9476 15.6899C40.3225 15.315 40.6588 15.0082 40.6949 15.0082C40.7311 15.0082 41.0847 15.3358 41.481 15.7362ZM34.5765 15.8859C35.9773 16.3589 36.9875 16.9946 38.089 18.0961C39.1883 19.1954 39.8235 20.2036 40.302 21.6086L40.6319 22.5775L40.6675 36.6261C40.695 47.5103 40.6692 50.7975 40.5531 51.2196C40.3581 51.9282 39.3829 52.9235 38.6801 53.1312C37.9619 53.3434 16.2947 53.3434 15.5765 53.1312C14.9112 52.9347 13.908 51.9314 13.7114 51.2661C13.4222 50.2873 12.9321 50.3719 18.8929 50.3719H24.2217V49.403V48.4341H18.8929H13.5642V47.4653V46.4964H17.4396H21.3151V45.5275V44.5587H17.4396H13.5642V43.5898V42.6209H18.4085H23.2528V41.6521V40.6832H18.4085H13.5642V39.7143V38.7455H17.4396H21.3151V37.7766V36.8077H17.4396H13.5642V35.8389V34.87H18.8929H24.2217V33.9011V32.9323H18.8929H13.5642V31.9634V30.9945H17.4396H21.3151V30.0256V29.0568H17.4396H13.5642V28.0879V27.119H18.4085H23.2528V26.1502V25.1813H18.3903H13.5278L13.5975 23.8794C13.7244 21.5049 14.5049 19.7382 16.1573 18.0858C17.4974 16.7457 19.0372 15.9226 20.7701 15.6197C21.1032 15.5615 24.1278 15.524 27.4916 15.5363L33.6076 15.5588L34.5765 15.8859ZM5.81321 34.87V42.6209H3.87547H1.93774V34.87V27.119H3.87547H5.81321V34.87Z" fill="#1C1F34"/>
</svg>
