<svg width="58" height="60" viewBox="0 0 58 60" fill="none" xmlns="http://www.w3.org/2000/svg">
<path fill-rule="evenodd" clip-rule="evenodd" d="M32.7066 0.0785634C30.3172 0.478545 28.2141 2.29921 27.4886 4.5957C26.925 6.37991 27.1849 8.62166 28.1277 10.1079C28.5874 10.8327 29.3509 11.656 29.8487 11.9636L30.2448 12.2084V14.9537V17.699H24.9109H19.5771V16.4084V15.1178L13.5691 15.1482L7.5612 15.1786L7.5279 16.4388L7.49461 17.699H3.74731H0V23.3259V28.9528H3.74871H7.49754L7.52931 31.2095L7.5612 33.4661L13.5691 33.4965L19.5771 33.5268V31.2398V28.9528L28.3398 28.9546C37.7359 28.9565 37.7609 28.9579 39.193 29.5617C40.7663 30.2251 42.166 31.566 42.9019 33.1144C43.4342 34.2344 43.5653 34.7569 43.6741 36.1917L43.7562 37.276H49.3784H55.0004L54.9208 35.84C54.7683 33.0885 54.3486 31.204 53.3904 28.9671C51.6304 24.8592 48.3923 21.4791 44.3816 19.5637C42.3647 18.6004 40.4258 18.0638 37.8353 17.7517L37.2785 17.6845L37.2793 14.9663L37.2801 12.2479L37.6603 11.989C38.6915 11.2871 39.6814 9.89839 40.108 8.55519C40.4261 7.55336 40.4502 5.85157 40.1602 4.86251C39.838 3.76397 39.2798 2.82193 38.4507 1.97812C36.9992 0.500584 34.7092 -0.256708 32.7066 0.0785634ZM17.7014 2.00192C16.8489 2.16838 15.7908 2.75734 15.1898 3.39986C12.5946 6.1743 14.1736 10.7009 17.9397 11.2839C19.3897 11.5083 20.7076 11.0898 21.8855 10.0307L22.4836 9.49302H24.3127H26.1418V8.55519V7.61737H23.7552H21.3684L20.9124 8.22672C19.578 10.0096 16.9556 9.776 16.046 7.79321C15.7606 7.17085 15.7616 6.0668 16.0485 5.44865C16.5094 4.45527 17.5192 3.82821 18.6392 3.84005C19.6688 3.85084 20.3137 4.21964 21.0932 5.24351L21.4724 5.74172H23.8071H26.1418V4.74529V3.74885H24.2625H22.3834L22.0469 3.36786C21.579 2.83811 20.5866 2.2685 19.7576 2.05397C18.9944 1.85656 18.5089 1.84425 17.7014 2.00192ZM35.491 2.24728C37.2481 2.90118 38.4654 4.69078 38.4654 6.61988C38.4654 8.38463 37.5765 9.90777 36.0303 10.7924L35.4028 11.1514V14.4251V17.699H33.8202H32.2377V14.4186V11.1382L31.6473 10.839C28.7963 9.39431 28.1926 5.57784 30.4569 3.31358C31.7901 1.98023 33.6914 1.57744 35.491 2.24728ZM48.4737 2.03838C47.6539 2.24153 46.9507 2.62874 46.3055 3.23223L45.7532 3.74885H43.5673H41.3814V4.74529V5.74172H44.0667H46.7519L47.1706 5.15898C47.9176 4.11917 48.9709 3.66398 50.1289 3.88026C51.9186 4.2146 52.8979 6.13467 52.1253 7.79403C51.4587 9.22527 49.7311 9.85736 48.3565 9.17298C47.8988 8.94509 47.2674 8.34723 47.054 7.93975L46.8852 7.61737H44.1332H41.3814V8.55519V9.49302H43.563H45.7447L46.3669 10.0617C48.77 12.2581 52.4473 11.5309 53.8436 8.58344C54.1868 7.85862 54.2179 7.69615 54.2179 6.62093C54.2179 5.55228 54.1856 5.38066 53.8534 4.67941C53.1794 3.25708 51.8458 2.23474 50.3434 1.98879C49.4812 1.84753 49.2153 1.85468 48.4737 2.03838ZM17.7014 24.3223V31.5319H13.5984H9.49546V24.3223V17.1128H13.5984H17.7014V24.3223ZM7.50258 23.3259V27.0772H4.68911H1.87565V23.3259V19.5746H4.68911H7.50258V23.3259ZM38.0743 19.6995C44.2663 20.3784 49.5535 24.4039 51.8556 30.1919C52.3449 31.4221 52.817 33.328 52.9352 34.5505L53.0172 35.4004L49.2801 35.4L45.543 35.3996L45.3501 34.4048C44.9801 32.4969 43.6632 30.3504 42.1108 29.1249C41.1671 28.3799 40.3662 27.9483 39.1194 27.5128L38.0404 27.1358L28.8087 27.1024L19.5771 27.0691V23.3218V19.5746H28.2565C33.6043 19.5746 37.3729 19.6226 38.0743 19.6995ZM12.6606 20.8641V21.8019H13.5984H14.5363V20.8641V19.9263H13.5984H12.6606V20.8641ZM12.6606 24.6154V25.5532H13.5984H14.5363V24.6154V23.6776H13.5984H12.6606V24.6154ZM12.6606 28.4253V29.4316L13.5691 29.3974L14.4776 29.3631V28.4253V27.4875L13.5691 27.4533L12.6606 27.419V28.4253ZM48.343 40.1549C45.387 43.9103 43.1385 47.5974 42.1986 50.2297C41.7541 51.4749 41.6082 53.196 41.8432 54.4201C42.1612 56.0762 43.2729 57.7237 44.7197 58.6832C46.8941 60.1253 50.3155 60.4166 53.0198 59.39C56.395 58.1087 58.1182 54.6365 57.1797 51.0082C56.5827 48.701 54.0131 44.273 51.157 40.63C49.5797 38.6182 49.6326 38.6828 49.561 38.6828C49.5284 38.6828 48.9804 39.3452 48.343 40.1549ZM50.9141 43.4749C53.7686 47.4085 55.566 51.0151 55.566 52.8089C55.566 55.3343 54.0826 57.2041 51.5492 57.8721C50.5512 58.1353 48.5879 58.1334 47.5979 57.8684C46.0445 57.4525 44.7519 56.5381 44.2067 55.4697C43.8371 54.7451 43.6088 53.7374 43.6088 52.8306C43.6088 50.8927 45.261 47.5663 48.3243 43.3371C48.9685 42.4475 49.5397 41.7354 49.5934 41.7545C49.6471 41.7736 50.2414 42.5479 50.9141 43.4749Z" fill="#1C1F34"/>
</svg>
