<svg width="60" height="60" viewBox="0 0 60 60" fill="none" xmlns="http://www.w3.org/2000/svg">
<path fill-rule="evenodd" clip-rule="evenodd" d="M56.4661 0.161409C55.9243 0.354703 56.0353 0.269719 51.1057 4.26218C45.2785 8.9814 38.2306 14.838 32.9561 19.3438L32.0984 20.0764L23.1684 11.1648C15.5307 3.54293 14.1423 2.20734 13.5746 1.93551C12.3311 1.34016 10.8668 1.34075 9.62718 1.93704C9.07836 2.20113 8.18762 3.0294 4.47987 6.72307C0.549887 10.6383 -0.00326767 11.2331 1.4448e-05 11.5408C0.00681313 12.1804 0.591734 12.6103 1.16845 12.3995C1.32962 12.3407 2.76696 10.9896 4.36242 9.3973L7.26335 6.502L7.87781 7.11657L8.49238 7.73115L5.54516 10.6906C3.92414 12.3184 2.56476 13.7628 2.5242 13.9004C2.37557 14.4058 2.89332 14.9981 3.48387 14.9981C3.59077 14.9981 5.03866 13.6414 6.70128 11.9833L9.72435 8.96839L10.3712 9.60712L11.018 10.246L8.02738 13.2382C5.34788 15.9192 5.03666 16.2702 5.03666 16.6107C5.03666 17.1028 5.39172 17.4597 5.88134 17.4597C6.216 17.4597 6.58465 17.1331 9.25348 14.4715L12.2499 11.4831L12.8615 12.0946L13.4729 12.706L10.4856 15.7078C7.93161 18.2739 7.49884 18.759 7.502 19.0515C7.5088 19.6828 8.09747 20.1108 8.67044 19.9015C8.83161 19.8426 10.2689 18.4916 11.8644 16.8993L14.7653 14.004L15.3798 14.6186L15.9944 15.2331L13.0471 18.1926C11.4261 19.8204 10.0667 21.2647 10.0262 21.4024C9.87756 21.9078 10.3953 22.5001 10.9859 22.5001C11.0928 22.5001 12.5406 21.1434 14.2033 19.4852L17.2263 16.4704L17.8732 17.1091L18.52 17.7479L15.5294 20.7402C12.8499 23.4212 12.5387 23.7722 12.5387 24.1127C12.5387 24.6048 12.8937 24.9617 13.3833 24.9617C13.718 24.9617 14.0866 24.635 16.7568 21.972L19.7545 18.9825L20.3923 19.6283L21.03 20.274L18.0151 23.2971C14.8922 26.4285 14.7731 26.5869 15.16 27.0964C15.3852 27.3927 15.8316 27.5281 16.1724 27.4035C16.3336 27.3446 17.7709 25.9936 19.3664 24.4013L22.2673 21.506L22.8807 22.1195L23.4941 22.7329L20.5496 25.6935C18.93 27.3218 17.5698 28.7708 17.5269 28.9134C17.4425 29.1938 17.6227 29.6231 17.9205 29.8518C18.412 30.2291 18.5889 30.0952 21.7067 26.9858L24.7311 23.9696L25.3987 24.6372C25.7659 25.0045 26.0425 25.3238 26.0133 25.3469C25.2645 25.9392 17.0346 33.2356 15.9151 34.2996C14.9466 35.2203 14.9483 35.1861 15.7926 36.58C16.8606 38.3431 16.9284 40.4895 15.9768 42.4119C15.5044 43.3662 11.8316 47.0376 10.8269 47.56C8.7934 48.6172 6.36006 48.4757 4.41927 47.1876C1.22636 45.0683 0.865791 40.3995 3.68666 37.7007C4.4596 36.9611 5.34882 36.4775 6.44481 36.2003C8.60925 35.653 10.8104 36.3115 12.4538 37.9983C12.9482 38.5057 13.0633 38.5687 13.4385 38.5367C13.9766 38.4908 14.3655 38.0278 14.2506 37.57C14.145 37.149 13.4547 36.4118 12.5852 35.7914C10.688 34.4376 8.53013 33.9589 6.35045 34.4082C2.49138 35.2038 -0.191286 38.6617 0.0383449 42.5445C0.117467 43.8816 0.329047 44.6389 0.971405 45.8852C2.51295 48.8758 6.15727 50.5849 9.49097 49.8806C9.91003 49.7921 10.262 49.7276 10.2732 49.7372C10.2842 49.7469 10.2128 50.0973 10.1143 50.516C9.84966 51.6419 9.96465 53.4643 10.3757 54.6594C11.167 56.9591 13.0211 58.7837 15.4117 59.6153C16.2404 59.9036 16.5169 59.9412 17.8135 59.9429C19.4565 59.945 20.1464 59.79 21.4402 59.1286C23.4763 58.0877 25.0141 56.1423 25.562 53.9147C25.7658 53.0855 25.7658 51.1101 25.562 50.2809C25.3304 49.3393 24.7266 48.0992 24.0914 47.261L23.535 46.5269L24.3469 45.6199C26.4382 43.2838 31.9663 37.0436 33.2246 35.5989C33.9966 34.7126 34.6577 33.9875 34.6939 33.9875C34.73 33.9875 35.0463 34.2779 35.3967 34.6327L36.0339 35.278L33.0191 38.3011C29.9111 41.4173 29.7772 41.5944 30.1545 42.0858C30.3832 42.3837 30.8126 42.5638 31.0929 42.4794C31.2355 42.4365 32.6845 41.0763 34.3128 39.4567L37.2734 36.5122L37.8868 37.1256L38.5003 37.739L35.6059 40.6399C34.0139 42.2354 32.6628 43.6727 32.6035 43.8339C32.4779 44.1755 32.612 44.62 32.9085 44.8451C33.4196 45.2334 33.5763 45.1157 36.7092 41.9912L39.7323 38.9763L40.3781 39.614L41.0238 40.2518L38.0343 43.2495C35.3713 45.9197 35.0446 46.2883 35.0446 46.623C35.0446 47.1126 35.4016 47.4677 35.8936 47.4677C36.2342 47.4677 36.5851 47.1564 39.2661 44.4769L42.2584 41.4863L42.8972 42.1332L43.5359 42.78L40.5211 45.803C38.8629 47.4657 37.5062 48.9136 37.5062 49.0205C37.5062 49.611 38.0985 50.1288 38.604 49.9801C38.7416 49.9396 40.1859 48.5802 41.8138 46.9592L44.7732 44.0119L45.3877 44.6265L46.0023 45.241L43.107 48.1419C41.5147 49.7374 40.1641 51.1745 40.1059 51.3353C39.872 51.9808 40.4394 52.6195 41.1017 52.4564C41.3207 52.4023 42.4267 51.3848 44.3657 49.4531L47.2983 46.5316L47.9108 47.1439L48.5232 47.7564L45.5349 50.7528C42.8732 53.4217 42.5466 53.7903 42.5466 54.125C42.5466 54.6146 42.9035 54.9697 43.3956 54.9697C43.7361 54.9697 44.0871 54.6584 46.7681 51.9789L49.7604 48.9883L50.3992 49.6351L51.0379 50.282L48.0231 53.305C46.3649 54.9677 45.0082 56.4155 45.0082 56.5224C45.0082 57.113 45.6005 57.6307 46.1059 57.4821C46.2436 57.4416 47.6879 56.0822 49.3157 54.4612L52.2752 51.5139L52.8897 52.1285L53.5043 52.743L50.6098 55.6439C49.0179 57.2394 47.6668 58.6767 47.6075 58.8379C47.3954 59.4147 47.8247 59.9995 48.4656 60.0063C48.7733 60.0096 49.368 59.4564 53.2832 55.5264C58.0971 50.6945 58.252 50.5021 58.4846 49.0734C58.5514 48.6629 58.5514 48.1479 58.4846 47.7374C58.2382 46.2237 58.4756 46.4921 48.8404 36.8369C40.6709 28.6503 39.9417 27.8883 40.0943 27.6963C40.1859 27.5811 41.2908 26.2724 42.5498 24.7883C49.5005 16.594 59.0928 4.90947 59.6643 3.94101C60.2481 2.95133 60.0566 1.66708 59.1976 0.811855C58.4207 0.0383297 57.4552 -0.191536 56.4661 0.161409ZM39.3523 19.4232C23.0905 35.6852 22.0334 36.7669 22.0334 37.1434C22.0334 37.6812 22.318 37.973 22.8426 37.973C23.246 37.973 23.9999 37.2379 40.6065 20.6539C50.145 11.1284 57.868 3.44036 57.7687 3.5693C55.4395 6.59472 46.3439 17.6162 40.7432 24.1998C35.0622 30.8777 24.7301 42.6618 24.4673 42.763C24.4063 42.7863 24.0551 42.4957 23.6868 42.117C23.174 41.5896 22.9821 41.2915 22.8671 40.8435C22.632 39.9273 22.5273 39.735 22.1951 39.6086C21.8201 39.4661 21.5165 39.5495 21.2088 39.8797C20.9193 40.1905 20.9197 40.4542 21.2107 41.3966C21.4828 42.2773 22.1903 43.3188 22.8426 43.7985L23.3038 44.1376L22.3773 45.1873C21.202 46.5185 21.1726 46.7353 22.0463 47.6218C24.3645 49.974 24.6487 53.2629 22.7521 55.7902C21.4156 57.5712 19.1907 58.4832 16.9715 58.1598C12.7617 57.5461 10.4538 52.9567 12.4544 49.1768C12.7269 48.662 13.418 47.8617 14.9428 46.2955C16.6432 44.5489 17.1398 43.9627 17.4956 43.283C18.6512 41.0749 18.7042 38.4368 17.6365 36.2733L17.2315 35.4528L17.563 35.1597C17.7453 34.9985 18.8389 34.021 19.9932 32.9876C29.8382 24.1733 43.1306 12.9314 55.4407 3.00865C56.0531 2.51492 56.5805 2.10946 56.6127 2.10759C56.6448 2.1056 48.8777 9.8977 39.3523 19.4232ZM12.7731 3.5196C12.9987 3.63506 17.1266 7.67629 21.946 12.5003L30.7087 21.2711L29.0378 22.7059L27.3668 24.1407L17.9325 14.7065L8.49813 5.27226L9.25829 4.4999C9.67641 4.0751 10.1767 3.64292 10.3701 3.53953C11.112 3.14298 12.0222 3.13536 12.7731 3.5196ZM56.5215 47.2918C56.8443 47.9105 56.8424 48.9004 56.5172 49.5285C56.3864 49.7812 55.9316 50.3299 55.5066 50.748L54.7341 51.5082L45.283 42.0572L35.832 32.6062L37.2761 30.9444L38.7202 29.2826L47.4985 38.0528C52.8441 43.3935 56.3725 47.0063 56.5215 47.2918ZM6.6585 37.9558C5.38703 38.3771 4.44846 39.2005 3.89976 40.3759C3.61597 40.9838 3.57166 41.2225 3.57295 42.1342C3.57424 43.068 3.61586 43.2767 3.93563 43.9511C5.10863 46.4249 8.11095 47.2706 10.3664 45.7625C11.0745 45.2889 11.5113 44.757 11.9299 43.8589C12.1951 43.2898 12.242 43.0308 12.242 42.1342C12.242 41.2359 12.1953 40.9791 11.9277 40.4049C10.9762 38.3626 8.66845 37.2899 6.6585 37.9558ZM8.71545 39.64C9.67418 39.9248 10.5472 41.1213 10.5452 42.1478C10.5427 43.5359 9.30154 44.7703 7.90852 44.7703C7.20427 44.7703 6.62486 44.5164 6.07557 43.9672C4.99189 42.8835 4.99704 41.4068 6.08835 40.3128C6.84828 39.5511 7.68991 39.3355 8.71545 39.64ZM16.5011 47.9205C15.2664 48.3295 14.4123 49.1328 13.8043 50.4567C13.5837 50.9372 13.5351 51.2434 13.5351 52.1564C13.535 53.1434 13.573 53.3473 13.8688 53.95C14.296 54.8197 15.1553 55.6778 16.0204 56.0981C16.6183 56.3886 16.8337 56.4286 17.8135 56.4304C18.7789 56.4322 19.0167 56.3906 19.6014 56.1177C20.5476 55.6759 21.4602 54.7762 21.8687 53.8821C22.3092 52.9182 22.3338 51.5227 21.9286 50.4864C21.5685 49.5656 20.6853 48.6239 19.7502 48.1635C18.7767 47.6843 17.5022 47.589 16.5011 47.9205ZM18.6432 49.5941C20.3727 50.1123 21.0437 52.3428 19.8907 53.7416C18.9371 54.8984 17.2397 55.0397 16.1458 54.0534C14.9938 53.0148 14.9225 51.4298 15.9777 50.3169C16.7103 49.5444 17.6377 49.293 18.6432 49.5941Z" fill="#1C1F34"/>
</svg>
