<svg width="60" height="44" viewBox="0 0 60 44" fill="none" xmlns="http://www.w3.org/2000/svg">
<path fill-rule="evenodd" clip-rule="evenodd" d="M2.70059 0.131938C1.58841 0.484893 0.796086 1.16908 0.30681 2.19918L0 2.84497V8.30485V13.7647L0.30681 14.4105C0.696986 15.232 1.35076 15.8858 2.17221 16.2759C2.80215 16.5752 2.88517 16.5837 5.54795 16.6198L8.27789 16.6571V19.6735C8.27789 23.0125 8.44614 24.8882 8.91992 26.8282C10.8687 34.8089 17.2639 41.0673 25.3126 42.8701C32.5558 44.4926 40.1109 42.2592 45.4031 36.931C48.9216 33.3886 51.1128 28.7272 51.5972 23.7541C51.6659 23.0486 51.7221 21.1633 51.7221 19.5643V16.6571L54.4521 16.6198C57.1148 16.5837 57.1978 16.5752 57.8278 16.2759C58.6492 15.8858 59.303 15.232 59.6932 14.4105L60 13.7647V8.30485V2.84497L59.6932 2.19918C59.303 1.37773 58.6492 0.723954 57.8278 0.333778L57.182 0.026968L30.1761 0.00501143C8.62732 -0.0126011 3.07538 0.0131125 2.70059 0.131938ZM57.1273 2.11112C57.4721 2.28525 57.7403 2.53546 57.9134 2.84497C58.1739 3.31076 58.1762 3.3562 58.1762 8.30485C58.1762 13.2535 58.1739 13.2989 57.9134 13.7647C57.7403 14.0742 57.4721 14.3245 57.1273 14.4986L56.6038 14.7628H49.5911H42.5784L41.9308 13.7693C40.6786 11.8483 38.7463 10.1029 36.6532 9.00219C31.9381 6.5227 26.4093 6.84642 21.8982 9.86615C20.7083 10.6627 18.9182 12.4825 18.0922 13.7354L17.4148 14.7628H10.4055H3.39616L2.87272 14.4986C2.52787 14.3245 2.25969 14.0742 2.08661 13.7647C1.82607 13.2989 1.82384 13.2535 1.82384 8.30485C1.82384 3.3562 1.82607 3.31076 2.08661 2.84497C2.25969 2.53546 2.52787 2.28525 2.87272 2.11112L3.39616 1.84693H30H56.6038L57.1273 2.11112ZM33.0528 9.58352C36.4913 10.5175 39.0661 12.5119 40.8966 15.6591C41.1646 16.1199 41.4687 16.5293 41.5724 16.5691C41.676 16.6089 43.5795 16.6414 45.8022 16.6414H49.8434V19.5814C49.8434 23.7527 49.639 25.3641 48.7823 27.9447C47.121 32.9499 43.5632 37.0503 38.8225 39.4236C35.6421 41.0158 31.8523 41.7513 28.4442 41.4378C26.4886 41.2579 25.4937 41.0529 23.7182 40.4637C17.4991 38.3997 12.6589 33.3064 10.899 26.9741C10.345 24.9806 10.247 24.0535 10.1878 20.252L10.1317 16.6414H14.1791C18.7946 16.6414 18.5804 16.687 19.1377 15.5872C19.5592 14.7555 20.7586 13.213 21.5217 12.5214C23.1324 11.0616 25.3158 9.94669 27.4932 9.47221C28.8916 9.16752 31.7303 9.22435 33.0528 9.58352ZM28.7671 18.4027C24.1464 18.9196 20.3168 22.2544 19.1259 26.798C18.7485 28.2378 18.6925 30.4913 19.0002 31.8604C20.4612 38.3651 27.0541 42.2505 33.3052 40.2907C37.1893 39.073 40.0948 35.8897 40.9998 31.8604C41.3075 30.4913 41.2515 28.2378 40.8741 26.798C39.8236 22.7896 36.7199 19.6894 32.7652 18.698C31.5331 18.3891 29.9402 18.2714 28.7671 18.4027ZM44.1847 19.0322C43.6213 19.1883 43.4628 19.2818 42.8717 19.8058C42.0356 20.547 41.7407 22.0382 42.2206 23.0994C42.7559 24.2835 43.7027 24.9051 44.9706 24.9051C45.971 24.9051 46.5518 24.6397 47.2253 23.8744C48.0134 22.9791 48.1897 21.7675 47.6887 20.6915C47.0659 19.3541 45.573 18.6472 44.1847 19.0322ZM32.3483 20.5282C34.7722 21.1326 37.0866 22.9613 38.2641 25.2023C38.984 26.5721 39.3009 27.8765 39.3082 29.4986C39.3155 31.1071 39.12 32.0619 38.5106 33.3939C37.3289 35.9767 35.088 37.8837 32.3652 38.6234C31.6808 38.8093 31.1193 38.8672 30 38.8672C28.3281 38.8672 27.2462 38.6347 25.9909 38.0054C23.4027 36.7081 21.6048 34.4951 20.8922 31.7295C20.5611 30.4446 20.6115 28.3831 21.0065 27.0555C21.5436 25.2494 22.3934 23.8646 23.6858 22.6892C26.0479 20.5409 29.2231 19.7488 32.3483 20.5282ZM45.4356 20.9328C46.0448 21.2219 46.2864 22.0566 45.9147 22.5874C45.6837 22.9171 45.1027 23.1433 44.7279 23.0492C43.7031 22.792 43.5447 21.4019 44.4872 20.9369C44.9443 20.7115 44.9689 20.7114 45.4356 20.9328ZM28.1213 24.7756C25.4735 25.6816 23.8684 27.855 23.8526 30.5553C23.826 35.1556 28.5728 38.1934 32.6589 36.1909C35.9358 34.585 37.1456 30.59 35.3058 27.4507C34.5918 26.2322 33.1296 25.1297 31.6518 24.6957C30.6952 24.4147 29.0684 24.4515 28.1213 24.7756ZM31.7941 26.7335C32.5974 27.1196 33.4627 27.944 33.8091 28.6528C34.9186 30.9241 34.0397 33.4477 31.7613 34.5335C31.0934 34.8517 30.8733 34.8972 30 34.8972C29.1267 34.8972 28.9066 34.8517 28.2387 34.5335C24.7107 32.8523 24.9302 27.9036 28.5916 26.5762C29.3728 26.293 31.049 26.3754 31.7941 26.7335Z" fill="#1C1F34"/>
</svg>
