<svg width="60" height="60" viewBox="0 0 60 60" fill="none" xmlns="http://www.w3.org/2000/svg">
<path fill-rule="evenodd" clip-rule="evenodd" d="M29.2259 0.154166C29.0325 0.240905 26.8963 1.68359 24.4787 3.36035L20.0831 6.409L19.994 5.82046C19.8117 4.61655 19.1669 3.68891 18.2103 3.25439C17.8073 3.0713 17.4145 3.03989 15.5034 3.03766C13.2947 3.03508 13.2605 3.03895 12.6325 3.35742C11.9243 3.71669 11.3131 4.429 11.1216 5.11858C11.0503 5.37516 11 7.02965 10.9997 9.13179L10.999 12.7083L5.78992 16.3124C2.82403 18.3646 0.46894 20.0739 0.32078 20.282C-0.0323891 20.7779 -0.105883 21.6328 0.160078 22.151C0.273074 22.3712 0.705832 23.0408 1.12183 23.6389C1.98031 24.8732 2.43382 25.1891 3.34598 25.1882C3.7369 25.1877 4.04986 25.0998 4.37631 24.8987C4.63418 24.7399 4.88385 24.6083 4.93097 24.6063C4.97821 24.6043 5.03095 31.7366 5.04818 40.456L5.0796 56.3093L5.46969 57.1071C6.14942 58.4973 7.4423 59.5407 8.90222 59.8773C9.23839 59.9549 16.5448 59.9969 29.9925 59.9988C52.5003 60.0019 51.2825 60.0381 52.4892 59.331C53.2965 58.8581 54.0612 58.0175 54.4985 57.1227L54.896 56.3093L54.927 40.456C54.944 31.7366 54.9967 24.6043 55.0442 24.6063C55.0917 24.6083 55.3414 24.7399 55.5993 24.8987C55.9258 25.0998 56.2387 25.1877 56.6296 25.1882C57.5418 25.1891 57.9953 24.8732 58.8538 23.6389C59.2698 23.0408 59.7025 22.3712 59.8155 22.151C60.0971 21.6023 60.0087 20.752 59.617 20.2413C59.3351 19.874 31.7493 0.671788 30.8301 0.203162C30.3356 -0.0489675 29.7213 -0.067722 29.2259 0.154166ZM44.6397 12.1166C51.8924 17.1321 57.8617 21.268 57.9049 21.3075C57.9627 21.3603 56.9527 22.8696 56.6561 23.1738C56.6367 23.1937 50.859 19.2207 43.817 14.3448C36.7749 9.4689 30.8846 5.43072 30.7273 5.37082C30.3657 5.23345 29.6168 5.23075 29.2628 5.36555C29.1136 5.42252 23.2226 9.46269 16.1719 14.3439C5.44226 21.7719 3.32676 23.1929 3.19548 23.0608C3.10921 22.9741 2.80246 22.5631 2.51376 22.1478L1.98887 21.3925L2.42069 21.0815C2.65817 20.9105 5.8327 18.7128 9.47516 16.1979C13.1176 13.6829 19.2321 9.45683 23.063 6.80671L30.028 1.98835L30.7406 2.49284C31.1324 2.77029 37.387 7.10092 44.6397 12.1166ZM17.6891 5.33003C17.9399 5.5967 17.9779 5.76021 18.0133 6.72067L18.0534 7.80913L15.5891 9.52469C14.2339 10.4682 13.0949 11.2401 13.0583 11.2401C13.0216 11.2401 12.9916 9.97187 12.9916 8.4217V5.60315L13.2794 5.3155C13.5614 5.03336 13.6049 5.02774 15.486 5.02774C17.3969 5.02774 17.4062 5.02903 17.6891 5.33003ZM41.5886 15.2362L52.962 23.1105L52.9568 39.3583C52.9527 52.2745 52.9208 55.6923 52.8013 56.0269C52.566 56.685 52.0799 57.2376 51.4093 57.6091L50.7935 57.9504H29.9878H9.18213L8.56628 57.6091C7.89569 57.2376 7.4096 56.685 7.17435 56.0269C7.05479 55.6923 7.02291 52.275 7.0188 39.3619L7.01365 23.1178L18.4714 15.1924C24.7731 10.8335 29.9936 7.28846 30.0722 7.31449C30.1507 7.34062 35.3332 10.9054 41.5886 15.2362ZM28.1868 19.1094C22.52 19.837 17.8143 24.0421 16.3764 29.6631C16.1684 30.4762 16.1173 31.0945 16.0705 33.3658C16.0397 34.8654 16.0478 36.2251 16.0886 36.3875C16.1337 36.5676 16.3178 36.7566 16.5614 36.8727C16.9 37.0341 17.0151 37.0401 17.3247 36.9119C17.5251 36.8288 17.7529 36.6494 17.8308 36.5132C17.9238 36.3508 17.9975 35.3373 18.045 33.5696C18.1302 30.3955 18.2665 29.7372 19.259 27.7089C20.6875 24.7892 23.1253 22.6561 26.1965 21.6386C29.7674 20.4557 33.4172 20.9288 36.5684 22.9829C38.4101 24.1833 39.8583 25.8573 40.824 27.902C41.7108 29.7797 41.8478 30.4805 41.9306 33.5696C41.9781 35.3373 42.0518 36.3508 42.1448 36.5132C42.2227 36.6494 42.4505 36.8288 42.6509 36.9119C42.9605 37.0401 43.0756 37.0341 43.4142 36.8727C43.6578 36.7566 43.8419 36.5676 43.8871 36.3875C43.9279 36.2251 43.9372 34.8654 43.908 33.3658C43.8597 30.8915 43.8267 30.5355 43.5499 29.5178C41.6701 22.6045 35.1847 18.2107 28.1868 19.1094ZM28.9915 23.0329C24.8233 23.6437 21.7257 26.2478 20.4311 30.229C20.128 31.1613 20.1024 31.4022 20.0306 33.9799C19.9561 36.6621 19.9459 36.7502 19.6417 37.338C19.4699 37.6699 19.1297 38.1065 18.8857 38.3084C18.4302 38.685 17.5291 39.0201 16.9714 39.0201C16.4571 39.0201 16.0392 39.4326 16.0392 39.9403C16.0392 40.8353 16.6088 41.1357 17.8662 40.904C19.6498 40.5753 21.1234 39.2979 21.7302 37.5549C21.8892 37.0983 21.9531 36.3605 22.0198 34.2143C22.0941 31.8197 22.1392 31.3602 22.365 30.6978C23.2912 27.9809 25.4055 25.9747 28.1223 25.2348C29.1167 24.964 30.9572 24.9666 31.9785 25.2402C34.5965 25.9415 36.7165 27.951 37.6128 30.5806C37.84 31.2474 37.8827 31.6942 37.9547 34.1557C38.0197 36.3829 38.0799 37.091 38.2432 37.5549C38.865 39.3217 40.3443 40.5909 42.1533 40.9096C43.3561 41.1214 43.9364 40.8144 43.9364 39.9664C43.9364 39.4315 43.5311 39.0201 43.0042 39.0201C41.9462 39.0201 40.7669 38.269 40.2947 37.2944C40.0425 36.7739 40.0179 36.5357 39.9462 33.9213C39.8736 31.2789 39.8492 31.0476 39.5447 30.1118C38.952 28.2904 38.1939 27.0765 36.8287 25.7627C35.4845 24.4694 34.017 23.6726 32.2306 23.2663C31.3663 23.0696 29.6059 22.9429 28.9915 23.0329ZM29.1673 27.0653C26.7951 27.3876 24.8103 29.166 24.1802 31.5337C24.0553 32.0026 24.0123 32.9491 24.0112 35.2461C24.0096 38.913 23.9058 39.5694 23.1495 40.6923C22.239 42.0444 20.9362 42.8228 19.3337 42.9725C18.401 43.0596 18.0319 43.3515 18.0319 44.0018C18.0319 44.6364 18.4487 44.9981 19.18 44.9981C19.9792 44.9981 21.4278 44.6058 22.2884 44.1562C23.2203 43.6695 24.6496 42.2415 25.1415 41.3058C25.8812 39.899 25.9168 39.6609 25.9922 35.6209L26.0611 31.9286L26.3858 31.2673C27.8448 28.2965 32.1309 28.2965 33.5898 31.2673L33.9145 31.9286L33.982 35.6209C34.0433 38.9753 34.0725 39.3829 34.3012 40.0751C34.8552 41.7515 36.1871 43.354 37.6891 44.1512C38.5412 44.6034 39.989 44.9981 40.7956 44.9981C41.5269 44.9981 41.9438 44.6364 41.9438 44.0018C41.9438 43.3515 41.5746 43.0596 40.642 42.9725C38.6904 42.7902 37.0135 41.5368 36.2947 39.7234C36.0578 39.1257 36.034 38.8097 35.9675 35.3865C35.9018 31.9944 35.8754 31.6384 35.6426 31.0087C34.6479 28.3167 31.9683 26.6849 29.1673 27.0653ZM29.491 32.113C29.033 32.3799 28.9932 32.6591 28.9255 36.0897L28.8594 39.4304L28.488 40.5439C27.5491 43.3587 25.5647 45.6244 22.838 46.9946C22.1887 47.3209 22.0257 47.5257 22.0209 48.0217C22.0162 48.5102 22.4597 48.9839 22.9203 48.9822C23.7157 48.9795 25.6854 47.7646 27.1065 46.4002C29.017 44.566 30.1807 42.4366 30.7551 39.7234C30.9609 38.7512 31.1378 33.7614 30.9937 32.9934C30.8428 32.1885 30.1042 31.7558 29.491 32.113ZM32.3628 43.4191C32.2222 43.5177 32.0724 43.7828 32.03 44.0084C31.9339 44.5209 32.2441 45.0017 33.3656 46.0788C34.7103 47.3702 36.098 48.1865 37.8828 48.736C38.9362 49.0603 39.3071 49.052 39.6633 48.6956C39.9829 48.3762 40.0513 47.7585 39.8046 47.4215C39.724 47.3114 39.1042 47.0345 38.4273 46.806C36.7029 46.2242 35.756 45.6332 34.4689 44.3355C33.5406 43.3994 33.3267 43.2399 33.0005 43.2399C32.7905 43.2399 32.5036 43.3205 32.3628 43.4191ZM30.3049 46.3259C30.1627 46.4759 29.7751 46.9144 29.4433 47.3003C28.6962 48.1696 27.3822 49.1836 26.2809 49.7407C25.3961 50.1884 25.141 50.4065 25.014 50.8237C24.9029 51.1885 25.2201 51.7354 25.6446 51.9112C25.9544 52.0396 26.0837 52.0253 26.6333 51.8022C28.7609 50.9387 31.9805 48.0315 31.9805 46.9738C31.9805 46.1675 30.8638 45.7357 30.3049 46.3259ZM32.4757 49.1793C32.3935 49.2123 32.1231 49.5378 31.8749 49.9026C31.3895 50.6157 30.339 51.6663 29.8675 51.9103C29.1371 52.2882 28.875 52.8447 29.1229 53.4909C29.2341 53.7807 29.8507 54.054 30.1968 53.9672C30.6657 53.8495 31.7367 53.0936 32.4654 52.3658L33.1278 51.7042L33.6384 52.0442C34.4348 52.5749 35.3447 52.8699 36.3948 52.9382C37.3073 52.9976 37.3652 52.9864 37.6549 52.6969C38.0328 52.319 38.0622 51.7177 37.7207 51.3513C37.4587 51.07 37.2803 51.0179 36.2907 50.9335C35.4224 50.8595 34.5925 50.4078 33.971 49.6708C33.5507 49.1721 33.436 49.1018 33.0577 49.1099C32.8198 49.1149 32.5579 49.1462 32.4757 49.1793Z" fill="#1C1F34"/>
</svg>
