<svg width="14" height="14" viewBox="0 0 14 14" fill="none" xmlns="http://www.w3.org/2000/svg">
<path fill-rule="evenodd" clip-rule="evenodd" d="M7.73617 1.78465L8.95445 4.21848C9.07384 4.45742 9.30431 4.6231 9.57157 4.66143L12.2969 5.05372C12.9702 5.15094 13.2382 5.96701 12.7509 6.43461L10.7801 8.32827C10.5864 8.51449 10.4983 8.78218 10.5441 9.04507L11.0092 11.7185C11.1237 12.3799 10.4198 12.8844 9.818 12.5716L7.38214 11.3084C7.14335 11.1845 6.85735 11.1845 6.61786 11.3084L4.182 12.5716C3.58015 12.8844 2.87626 12.3799 2.9915 11.7185L3.4559 9.04507C3.50171 8.78218 3.41355 8.51449 3.21988 8.32827L1.24912 6.43461C0.76181 5.96701 1.02976 5.15094 1.70311 5.05372L4.42843 4.66143C4.69569 4.6231 4.92685 4.45742 5.04625 4.21848L6.26383 1.78465C6.5651 1.18287 7.4349 1.18287 7.73617 1.78465Z" stroke="#6C757D" stroke-width="1.5" stroke-linecap="round" stroke-linejoin="round"/>
</svg>
