<svg width="20" height="15" viewBox="0 0 20 15" fill="none" xmlns="http://www.w3.org/2000/svg">
<path fill-rule="evenodd" clip-rule="evenodd" d="M18.578 0.0525008C18.4712 0.0921812 18.3264 0.177651 18.256 0.242523C18.1857 0.307344 15.9377 2.79121 13.2605 5.76219C9.65144 9.76729 8.32552 11.2064 8.13242 11.328C7.82442 11.5221 7.48562 11.5462 7.16076 11.3973C7.0448 11.3442 5.8409 10.2984 4.33365 8.94162C2.59433 7.37591 1.63367 6.54535 1.48671 6.48032C0.792758 6.17313 0.00293573 6.68635 7.66343e-06 7.44639C-0.000598144 7.60299 0.0347911 7.81351 0.0786617 7.91427C0.13485 8.04321 1.15665 9.03855 3.52515 11.2715C5.3768 13.0171 6.98639 14.5022 7.10199 14.5716C7.41696 14.7607 7.84517 14.7505 8.15842 14.5464C8.42462 14.373 19.72 1.85947 19.8792 1.56157C20.2306 0.904368 19.7762 0.0797619 19.0217 0.0051466C18.8699 -0.00989763 18.696 0.00868066 18.578 0.0525008Z" fill="#5F60B9"/>
</svg>
