<svg width="16" height="16" viewBox="0 0 16 16" fill="none" xmlns="http://www.w3.org/2000/svg">
<path fill-rule="evenodd" clip-rule="evenodd" d="M5.48925 0.0605845C5.26732 0.147379 5.13847 0.236741 4.97068 0.420349C4.77436 0.635144 4.61752 0.936482 4.41581 1.48643C4.20239 2.06825 4.0986 2.25888 3.97652 2.29316C3.92485 2.30769 3.61071 2.33315 3.2784 2.34977C2.94613 2.36637 2.5657 2.40225 2.433 2.42946C1.80988 2.55727 1.42607 2.90614 1.31144 3.44892C1.23698 3.80139 1.27818 4.11187 1.50193 4.88482C1.55926 5.08286 1.61641 5.32696 1.6289 5.42725C1.65101 5.60469 1.64878 5.61258 1.54596 5.72026C1.48787 5.78113 1.26419 5.96828 1.04892 6.13613C0.532384 6.53898 0.259476 6.83071 0.113753 7.13587C0.00763992 7.35802 0 7.39406 0 7.67151C0 7.94896 0.00763992 7.98499 0.113753 8.20715C0.259476 8.51231 0.532384 8.80403 1.04892 9.20688C1.26419 9.37474 1.48787 9.56188 1.54596 9.62275C1.64828 9.7299 1.65091 9.73904 1.62937 9.91154C1.61713 10.0095 1.54508 10.3077 1.46928 10.5743C1.39347 10.8409 1.31551 11.1831 1.29606 11.3349C1.18954 12.1654 1.60714 12.7441 2.43554 12.9141C2.56961 12.9416 2.95004 12.9772 3.28094 12.9932C3.61184 13.0092 3.92485 13.0344 3.97652 13.0492C4.09863 13.0843 4.20271 13.2756 4.41581 13.8566C4.71411 14.6699 4.96116 15.0263 5.36416 15.2248C5.53713 15.31 5.61519 15.3289 5.83048 15.3381C6.26264 15.3565 6.5833 15.2308 7.22558 14.7911C7.59796 14.5362 7.90124 14.3721 8 14.3721C8.09876 14.3721 8.40204 14.5362 8.77442 14.7911C9.42181 15.2343 9.743 15.3594 10.1756 15.3367C10.3884 15.3255 10.4737 15.3046 10.6399 15.2227C11.0384 15.0265 11.287 14.6669 11.5842 13.8566C11.7976 13.2748 11.9014 13.0841 12.0235 13.0499C12.0751 13.0353 12.3893 13.0099 12.7216 12.9932C13.0539 12.9766 13.4343 12.9408 13.567 12.9136C14.1928 12.7852 14.5734 12.4392 14.6886 11.8941C14.763 11.5416 14.7218 11.2311 14.4981 10.4582C14.4407 10.2602 14.3836 10.016 14.3711 9.91558C14.3485 9.73413 14.349 9.73231 14.4697 9.6081C14.5364 9.53937 14.7249 9.38254 14.8885 9.25955C15.0521 9.13659 15.3158 8.90758 15.4745 8.75061C15.7093 8.51835 15.7851 8.41903 15.8815 8.2171C15.9929 7.98387 16 7.95112 16 7.67151C16 7.39406 15.9924 7.35802 15.8862 7.13587C15.7405 6.83071 15.4676 6.53898 14.9511 6.13613C14.7358 5.96828 14.5114 5.78038 14.4524 5.7186L14.3451 5.60626L14.3835 5.35548C14.4046 5.21756 14.4488 5.02666 14.4816 4.93125C14.5772 4.6534 14.6951 4.13601 14.717 3.89852C14.7707 3.31654 14.498 2.80673 14.0085 2.57415C13.7233 2.43857 13.4118 2.38428 12.7216 2.34977C12.3893 2.33315 12.0751 2.30769 12.0235 2.29316C11.9014 2.25888 11.7976 2.06825 11.5842 1.48643C11.2859 0.673124 11.0388 0.316741 10.6358 0.11826C10.4629 0.033062 10.3848 0.0140874 10.1695 0.00491326C9.73736 -0.0134977 9.4167 0.112217 8.77442 0.551888C8.40204 0.806854 8.09876 0.970924 8 0.970924C7.90419 0.970924 7.5938 0.805288 7.26957 0.581163C6.84966 0.290909 6.63039 0.16961 6.36358 0.08006C6.06857 -0.0189771 5.713 -0.0268989 5.48925 0.0605845ZM10.7028 5.35674C10.8488 5.39729 11.0437 5.56777 11.1145 5.71691C11.1868 5.86943 11.1822 6.13294 11.1043 6.28286C11.068 6.35287 10.2958 7.14667 9.26259 8.17618C7.5753 9.85737 7.47557 9.95086 7.33245 9.98543C7.14984 10.0295 6.99306 10.0058 6.82583 9.909C6.62779 9.79431 4.94475 8.08729 4.88219 7.93765C4.69445 7.48868 5.00502 7.0095 5.48374 7.0095C5.76038 7.0095 5.86214 7.08201 6.54353 7.7645L7.16922 8.39122L8.67269 6.89339C9.81592 5.75442 10.2024 5.38764 10.2857 5.36256C10.4323 5.31841 10.5585 5.31666 10.7028 5.35674Z" fill="#3CAE5C"/>
</svg>
